<svg width="1200" height="720" viewBox="0 0 1200 720" fill="none" xmlns="http://www.w3.org/2000/svg">
  <rect width="1200" height="720" fill="#0B1220"/>
  <rect x="36" y="36" width="1128" height="648" rx="28" fill="#111C31" stroke="#1E293B" stroke-width="2"/>
  <rect x="72" y="84" width="1056" height="72" rx="16" fill="#0EA5E9" fill-opacity="0.14"/>
  <rect x="96" y="106" width="220" height="28" rx="8" fill="#0EA5E9"/>
  <rect x="72" y="190" width="720" height="420" rx="20" fill="#0F172A" stroke="#1E293B" stroke-width="2"/>
  <rect x="96" y="222" width="672" height="20" rx="8" fill="#E2E8F0" fill-opacity="0.1"/>
  <rect x="96" y="258" width="480" height="16" rx="8" fill="#E2E8F0" fill-opacity="0.07"/>
  <rect x="96" y="302" width="640" height="12" rx="6" fill="#22C55E" fill-opacity="0.24"/>
  <rect x="96" y="330" width="560" height="12" rx="6" fill="#22C55E" fill-opacity="0.18"/>
  <rect x="96" y="358" width="600" height="12" rx="6" fill="#22C55E" fill-opacity="0.12"/>
  <rect x="824" y="190" width="304" height="200" rx="20" fill="#0F172A" stroke="#1E293B" stroke-width="2"/>
  <circle cx="876" cy="242" r="18" fill="#22C55E"/>
  <rect x="910" y="228" width="150" height="12" rx="6" fill="#E2E8F0" fill-opacity="0.14"/>
  <rect x="910" y="250" width="108" height="10" rx="5" fill="#E2E8F0" fill-opacity="0.08"/>
  <rect x="848" y="292" width="248" height="8" rx="4" fill="#0EA5E9" fill-opacity="0.22"/>
  <rect x="848" y="314" width="208" height="8" rx="4" fill="#0EA5E9" fill-opacity="0.16"/>
  <rect x="824" y="410" width="304" height="200" rx="20" fill="#0F172A" stroke="#1E293B" stroke-width="2"/>
  <rect x="848" y="436" width="96" height="16" rx="8" fill="#0EA5E9" fill-opacity="0.8"/>
  <rect x="848" y="468" width="248" height="10" rx="5" fill="#E2E8F0" fill-opacity="0.1"/>
  <rect x="848" y="492" width="208" height="10" rx="5" fill="#E2E8F0" fill-opacity="0.08"/>
  <rect x="848" y="534" width="122" height="34" rx="10" fill="#22C55E" fill-opacity="0.2" stroke="#22C55E" stroke-opacity="0.35"/>
</svg>
